<svg xmlns="http://www.w3.org/2000/svg" viewBox="0 0 500 500"><g id="freepik--Screen--inject-7"><path d="M231.68,96h0l-6.49-3.44v0a2.82,2.82,0,0,0-3.12-.21L110.57,155.85a5.77,5.77,0,0,0-2.9,5V370.44a2.83,2.83,0,0,0,1.83,2.65v0l6.54,3.51h0l.11.05a2.84,2.84,0,0,0,2.74,0l111.52-63.55a5.75,5.75,0,0,0,2.9-5V98.61A2.82,2.82,0,0,0,231.68,96Z" style="fill:#407BFF"></path><path d="M233.32,105.93V98.61A2.82,2.82,0,0,0,231.68,96h0l-6.49-3.44v0a2.82,2.82,0,0,0-3.12-.21L110.57,155.85a5.77,5.77,0,0,0-2.9,5v9.61l6.94,4Z" style="fill:#fff;opacity:0.30000000000000004"></path><path d="M231.68,96h0l-6.49-3.44v0a2.82,2.82,0,0,0-3.12-.21L110.57,155.85a5.77,5.77,0,0,0-2.9,5V370.44a2.83,2.83,0,0,0,1.83,2.65v0l6.54,3.51h0l.11.05a2.84,2.84,0,0,0,2.74,0l111.52-63.55a5.75,5.75,0,0,0,2.9-5V98.61A2.82,2.82,0,0,0,231.68,96Z" style="fill:#fff;opacity:0.5"></path><path d="M107.67,160.85V370.44a2.83,2.83,0,0,0,1.83,2.65v0l6.54,3.51a2.85,2.85,0,0,1-1.42-2.48V164.55a5.85,5.85,0,0,1,.45-2.24l-6.82-3.94A5.78,5.78,0,0,0,107.67,160.85Z" style="fill:#407BFF;opacity:0.30000000000000004"></path><path d="M225.21,92.59v0a2.82,2.82,0,0,0-3.12-.21L110.57,155.85a5.72,5.72,0,0,0-2.33,2.52l6.82,3.94a5.74,5.74,0,0,1,2.45-2.75L229,96.11a2.8,2.8,0,0,1,2.65-.07h0Z" style="fill:#fff;opacity:0.4"></path><path d="M148.59,162.83c14.71-8.49,26.67-1.68,26.72,15.22s-11.84,37.49-26.55,46-26.67,1.68-26.72-15.22S133.88,171.32,148.59,162.83Z" style="fill:#407BFF"></path><path d="M162.06,178.6a7.13,7.13,0,0,0,2-9.4,3.86,3.86,0,0,0,1.88-1.77,2.07,2.07,0,0,0-2.69-2.76,2.92,2.92,0,0,0-1.16-3.4,2.76,2.76,0,0,0-3.42.63,1.87,1.87,0,0,0-1.27-1.83,3.76,3.76,0,0,0-2.36.15c-.77.26-1.48.64-2.25.88a17.06,17.06,0,0,1-4,.52,8.17,8.17,0,0,0-3.9,1,3.49,3.49,0,0,0-1.53,4,2.24,2.24,0,0,0-1.62-.86,2.17,2.17,0,0,0-1.66.71c.85.52,1.67,1.09,2.52,1.61a2.29,2.29,0,0,0-2.59,1,5.06,5.06,0,0,0-.46,2.73,36.27,36.27,0,0,0,1.88,10.47c.58,1.74,1.94,3.94,3.59,4.74Z" style="fill:#37474f"></path><path d="M159.29,192l4,3.44,2.13,12.22a65.47,65.47,0,0,0,4.62-8.2C168.23,194.75,166.76,192,159.29,192Z" style="fill:#ebebeb"></path><path d="M148.76,224c6.91-4,13.2-10.64,17.91-18.33-.38-6.62-1.36-13.74-7.38-13.74l-17.89.12-3.65.39L136,227.66C139.82,227.85,144.15,226.69,148.76,224Z" style="fill:#407BFF"></path><g style="opacity:0.4"><path d="M148.76,224c6.91-4,13.2-10.64,17.91-18.33-.38-6.62-1.36-13.74-7.38-13.74l-17.89.12-3.65.39L136,227.66C139.82,227.85,144.15,226.69,148.76,224Z" style="fill:#fff"></path></g><path d="M156.37,194.34c1.67,5.32.62,12.74,0,16.08-4.24-5.83-8.2-11.67-9.45-14l5.91-2.86Z" style="fill:#ebebeb"></path><path d="M153.9,199.22l1.46-.34a48.54,48.54,0,0,1,1.77,5.7c-.18,2.35-.51,4.45-.76,5.84-.84-1.14-1.66-2.29-2.45-3.4A39,39,0,0,0,153.9,199.22Z" style="fill:#455a64"></path><path d="M153.93,199.53l0-.31,1.46-.34.08.21a1.91,1.91,0,0,1-.83.44A1.73,1.73,0,0,1,153.93,199.53Z" style="opacity:0.2"></path><path d="M153.11,195.4l-1.15-.74-2.67,1.46a6.12,6.12,0,0,0,3.16,1.25Z" style="fill:#455a64"></path><path d="M154.88,195.12l.35-.78,1.35.84a2.42,2.42,0,0,1-.87,1.28Z" style="fill:#455a64"></path><path d="M153.11,195.4l-1.15-.74-2.67,1.46a6.12,6.12,0,0,0,3.16,1.25Z" style="opacity:0.2"></path><path d="M154.88,195.12l.35-.78,1.35.84a2.42,2.42,0,0,1-.87,1.28Z" style="opacity:0.2"></path><path d="M152.45,197.37a6.64,6.64,0,0,1,.66-2l1.77-.28a6.64,6.64,0,0,1,.83,1.34,6.59,6.59,0,0,1-.35,2.42,3.14,3.14,0,0,1-1.46.34A3.77,3.77,0,0,1,152.45,197.37Z" style="fill:#455a64"></path><path d="M153.73,194.78c-2.8-.05-4.52,2.19-7.09,2.95l-5.24-5.65,2-3a5.4,5.4,0,0,1,1.55-1.5h0l0,1.1a1.89,1.89,0,0,0,.93,1.57Z" style="fill:#e0e0e0"></path><path d="M153.73,194.78c1.57-.48,3.9,1.47,3.9,1.47-.82-4.52-3.28-6.3-3.89-6.3Z" style="fill:#e0e0e0"></path><path d="M137.75,192.47l-2.42.39a7.15,7.15,0,0,0-5.85,5.62,85.37,85.37,0,0,0-1.58,20.59L139,214C140.14,205.31,142.42,198.16,137.75,192.47Z" style="fill:#ebebeb"></path><path d="M138.86,217.81l0-1a.6.6,0,0,1,.22-.46.64.64,0,0,0,.22-.49v-1.6a.78.78,0,0,0-.8-.78c-5,.07-9.88,2.45-11.21,5.26a4.19,4.19,0,0,0,0,2.71c-.87,1.13-.45,1.71,0,2.53a14.91,14.91,0,0,0,1.44,1.19C132,220,138.86,217.81,138.86,217.81Z" style="fill:#e0e0e0"></path><path d="M133.67,216.69a17,17,0,0,0-6.33,4.8,4.51,4.51,0,0,1-.2-.92A11.18,11.18,0,0,1,133.67,216.69Z" style="opacity:0.2"></path><path d="M139.31,216.09a.58.58,0,0,1-.18.3.6.6,0,0,0-.22.46v.08a16.66,16.66,0,0,0-9.25,4.68C132,218.26,137.06,216.54,139.31,216.09Z" style="opacity:0.2"></path><path d="M148.76,224a46.87,46.87,0,0,0,11.4-9.53c-6.43,0-15.39.4-21.26,2.43l0,.88s-6.84,2.17-10.08,7.4C133.67,228.73,140.81,228.62,148.76,224Z" style="fill:#ffa8a7"></path><path d="M139.35,217.84l.11-1.09-.56.18,0,.88a23.1,23.1,0,0,0-4.57,2.17,6.71,6.71,0,0,0-1,2c1.34-1.89,2.81-2.65,5.67-3.38,2.59.4,7.12,2.31,11.72,4.23.44-.29.88-.59,1.31-.9C146.41,220,140.79,217.94,139.35,217.84Z" style="opacity:0.2"></path><path d="M148.21,187.76l-.08,0a4.57,4.57,0,0,1-2.35-3c-.15-.65-.28-1.3-.38-1.95s-.53,0-.53,0,0,1.44.07,3.15c0,.9,0,1.88.06,2.77a1.89,1.89,0,0,0,.93,1.57l7.8,4.55v-5.55A14.22,14.22,0,0,1,148.21,187.76Z" style="fill:#ffa8a7"></path><polygon points="146.31 186.77 146.31 186.77 146.32 186.77 146.31 186.77" style="fill:#ffa8a7"></polygon><path d="M147.1,187.65a5.39,5.39,0,0,1-1-2,4.71,4.71,0,0,0,2,2.07l.08,0a14.22,14.22,0,0,0,5.53,1.47v1.42a13.9,13.9,0,0,1-3.27-.69A7.33,7.33,0,0,1,147.1,187.65Z" style="opacity:0.2"></path><path d="M162.54,170a37.16,37.16,0,0,1-.94,14.47,11.34,11.34,0,0,1-1.14,3,4.85,4.85,0,0,1-2.35,2.08,7.4,7.4,0,0,1-3.88,0,19.67,19.67,0,0,1-6.84-2.1c-2-1.24-3.67-3.48-3.47-5.87a4.09,4.09,0,0,1-3.92.22,4.15,4.15,0,0,1-2.15-3.33,2.56,2.56,0,0,1,4.28-2.42,8.6,8.6,0,0,1,1.59,1.86,2.8,2.8,0,0,0,.79.85,1,1,0,0,0,1.1,0,1.43,1.43,0,0,0,.31-1.19l-.14-3a1.21,1.21,0,0,1,.67-1.12,3,3,0,0,0,1.36-1.57,6.15,6.15,0,0,0,.38-1.82.75.75,0,0,1,1-.63A22.28,22.28,0,0,0,162.54,170Z" style="fill:#ffa8a7"></path><polygon points="155.88 177.35 158.6 181.93 155.35 182.54 155.88 177.35" style="fill:#f28f8f"></polygon><path d="M152.23,184.12l2.46,1.2a1.6,1.6,0,0,1-1.87.53A1.43,1.43,0,0,1,152.23,184.12Z" style="fill:#f28f8f"></path><path d="M152.23,184.12l2.46,1.2a1.6,1.6,0,0,1-1.87.53A1.43,1.43,0,0,1,152.23,184.12Z" style="opacity:0.30000000000000004"></path><path d="M153.68,185.93a1.39,1.39,0,0,1-.86-.08,1.32,1.32,0,0,1-.66-1.3,1.55,1.55,0,0,1,1,.34A1.53,1.53,0,0,1,153.68,185.93Z" style="fill:#f28f8f"></path><path d="M151.18,177.53a.93.93,0,1,0,1-.83A.92.92,0,0,0,151.18,177.53Z" style="fill:#263238"></path><path d="M159,178a.93.93,0,1,0,1.85.19A.93.93,0,0,0,159,178Z" style="fill:#263238"></path><path d="M160.27,174.41l1.92,1.63a1.32,1.32,0,0,0-.26-1.49A1.57,1.57,0,0,0,160.27,174.41Z" style="fill:#263238"></path><path d="M152.34,173.5l-2.2,1.22a1.31,1.31,0,0,1,.55-1.42A1.58,1.58,0,0,1,152.34,173.5Z" style="fill:#263238"></path><polygon points="197.09 171.67 197.1 174.25 185.54 180.92 185.53 178.34 197.09 171.67" style="fill:#fff"></polygon><polygon points="203.18 184.02 203.19 186.6 185.59 196.76 185.58 194.18 203.18 184.02" style="fill:#fff"></polygon><polygon points="208.94 175.42 208.95 178 185.57 191.5 185.56 188.92 208.94 175.42" style="fill:#fff"></polygon><polygon points="218.05 154.29 218.06 156.87 185.53 175.66 185.52 173.07 218.05 154.29" style="fill:#fff"></polygon><polygon points="224.49 145.25 224.5 147.84 185.51 170.34 185.5 167.76 224.49 145.25" style="fill:#fff"></polygon><polygon points="216.37 140.13 216.39 145.3 185.49 163.14 185.48 157.97 216.37 140.13" style="fill:#fff"></polygon><polygon points="120.91 244.11 120.91 368.23 166.68 342.15 166.68 217.71 120.91 244.11" style="fill:#407BFF"></polygon><polygon points="227.01 182.89 169.61 216.01 169.61 340.48 227.01 307.77 227.01 182.89" style="fill:#407BFF"></polygon><g style="opacity:0.7000000000000001"><polygon points="120.91 244.11 120.91 368.23 166.68 342.15 166.68 217.71 120.91 244.11" style="fill:#fff"></polygon><polygon points="227.01 182.89 169.61 216.01 169.61 340.48 227.01 307.77 227.01 182.89" style="fill:#fff"></polygon></g><polygon points="204.54 291.12 204.54 293.35 177.39 309.02 177.38 306.8 204.54 291.12" style="fill:#407BFF"></polygon><polygon points="219.42 278.39 219.43 280.63 177.38 304.9 177.37 302.67 219.42 278.39" style="fill:#407BFF"></polygon><polygon points="197.13 287.13 197.13 289.36 177.37 300.77 177.36 298.55 197.13 287.13" style="fill:#407BFF"></polygon><polygon points="219.4 270.15 219.41 272.38 177.36 296.65 177.35 294.42 219.4 270.15" style="fill:#407BFF"></polygon><polygon points="219.39 266.02 219.4 268.25 177.34 292.53 177.34 290.3 219.39 266.02" style="fill:#407BFF"></polygon><polygon points="187.46 274.42 187.46 276.66 177.32 282.52 177.31 280.28 187.46 274.42" style="fill:#407BFF"></polygon><polygon points="219.35 251.88 219.35 254.11 177.31 278.39 177.3 276.16 219.35 251.88" style="fill:#407BFF"></polygon><polygon points="219.34 247.76 219.34 249.99 177.29 274.27 177.29 272.04 219.34 247.76" style="fill:#407BFF"></polygon><polygon points="219.32 243.64 219.33 245.87 177.28 270.14 177.28 267.92 219.32 243.64" style="fill:#407BFF"></polygon><polygon points="204.4 242.27 204.41 244.5 177.25 260.18 177.25 257.95 204.4 242.27" style="fill:#407BFF"></polygon><polygon points="219.28 229.54 219.29 231.78 177.24 256.06 177.24 253.82 219.28 229.54" style="fill:#407BFF"></polygon><polygon points="219.27 225.42 219.28 227.65 177.23 251.93 177.22 249.7 219.27 225.42" style="fill:#407BFF"></polygon><polygon points="219.25 217.17 219.26 219.41 177.21 243.69 177.2 241.45 219.25 217.17" style="fill:#407BFF"></polygon><polygon points="219.26 221.3 219.27 223.53 177.22 247.81 177.21 245.58 219.26 221.3" style="fill:#407BFF"></polygon><polygon points="212.95 202.75 212.95 204.98 177.16 225.65 177.15 223.42 212.95 202.75" style="fill:#407BFF"></polygon><polygon points="215.49 209.54 215.5 211.78 177.18 233.9 177.17 231.66 215.49 209.54" style="fill:#407BFF"></polygon><polygon points="202.38 212.98 202.38 215.21 177.17 229.77 177.16 227.54 202.38 212.98" style="fill:#407BFF"></polygon><polygon points="219.19 195.02 219.19 197.25 177.14 221.53 177.14 219.3 219.19 195.02" style="fill:#407BFF"></polygon><polygon points="219.48 299.17 219.49 301.39 177.44 325.67 177.43 323.44 219.48 299.17" style="fill:#407BFF"></polygon><polygon points="197.21 316.15 197.21 318.38 177.45 329.79 177.44 327.56 197.21 316.15" style="fill:#407BFF"></polygon><polygon points="208.89 301.15 208.9 303.38 177.43 321.55 177.42 319.32 208.89 301.15" style="fill:#407BFF"></polygon><polygon points="219.46 290.92 219.47 293.15 177.42 317.43 177.41 315.19 219.46 290.92" style="fill:#407BFF"></polygon><g style="opacity:0.1"><polygon points="204.54 291.12 204.54 293.35 177.39 309.02 177.38 306.8 204.54 291.12" style="fill:#fff"></polygon><polygon points="219.42 278.39 219.43 280.63 177.38 304.9 177.37 302.67 219.42 278.39" style="fill:#fff"></polygon><polygon points="197.13 287.13 197.13 289.36 177.37 300.77 177.36 298.55 197.13 287.13" style="fill:#fff"></polygon><polygon points="219.4 270.15 219.41 272.38 177.36 296.65 177.35 294.42 219.4 270.15" style="fill:#fff"></polygon><polygon points="219.39 266.02 219.4 268.25 177.34 292.53 177.34 290.3 219.39 266.02" style="fill:#fff"></polygon></g><g style="opacity:0.4"><polygon points="187.46 274.42 187.46 276.66 177.32 282.52 177.31 280.28 187.46 274.42" style="fill:#fff"></polygon><polygon points="219.35 251.88 219.35 254.11 177.31 278.39 177.3 276.16 219.35 251.88" style="fill:#fff"></polygon><polygon points="219.34 247.76 219.34 249.99 177.29 274.27 177.29 272.04 219.34 247.76" style="fill:#fff"></polygon><polygon points="219.32 243.64 219.33 245.87 177.28 270.14 177.28 267.92 219.32 243.64" style="fill:#fff"></polygon></g><g style="opacity:0.1"><polygon points="204.4 242.27 204.41 244.5 177.25 260.18 177.25 257.95 204.4 242.27" style="fill:#fff"></polygon><polygon points="219.28 229.54 219.29 231.78 177.24 256.06 177.24 253.82 219.28 229.54" style="fill:#fff"></polygon><polygon points="219.27 225.42 219.28 227.65 177.23 251.93 177.22 249.7 219.27 225.42" style="fill:#fff"></polygon><polygon points="219.25 217.17 219.26 219.41 177.21 243.69 177.2 241.45 219.25 217.17" style="fill:#fff"></polygon><polygon points="219.26 221.3 219.27 223.53 177.22 247.81 177.21 245.58 219.26 221.3" style="fill:#fff"></polygon></g><g style="opacity:0.4"><polygon points="212.95 202.75 212.95 204.98 177.16 225.65 177.15 223.42 212.95 202.75" style="fill:#fff"></polygon><polygon points="215.49 209.54 215.5 211.78 177.18 233.9 177.17 231.66 215.49 209.54" style="fill:#fff"></polygon><polygon points="202.38 212.98 202.38 215.21 177.17 229.77 177.16 227.54 202.38 212.98" style="fill:#fff"></polygon><polygon points="219.19 195.02 219.19 197.25 177.14 221.53 177.14 219.3 219.19 195.02" style="fill:#fff"></polygon></g><g style="opacity:0.4"><polygon points="219.48 299.17 219.49 301.39 177.44 325.67 177.43 323.44 219.48 299.17" style="fill:#fff"></polygon><polygon points="197.21 316.15 197.21 318.38 177.45 329.79 177.44 327.56 197.21 316.15" style="fill:#fff"></polygon><polygon points="208.89 301.15 208.9 303.38 177.43 321.55 177.42 319.32 208.89 301.15" style="fill:#fff"></polygon><polygon points="219.46 290.92 219.47 293.15 177.42 317.43 177.41 315.19 219.46 290.92" style="fill:#fff"></polygon></g><polygon points="155.08 234.34 155.09 238.64 126.59 255.06 126.58 250.76 155.08 234.34" style="fill:#407BFF"></polygon><polygon points="151.13 244.82 151.14 246.97 126.61 261.1 126.61 258.95 151.13 244.82" style="fill:#fff"></polygon><polygon points="162.41 323.06 162.42 327.36 151.9 333.43 151.89 329.14 162.41 323.06" style="fill:#407BFF"></polygon><polygon points="142.02 288.64 142.03 292.94 126.73 301.74 126.71 297.45 142.02 288.64" style="fill:#407BFF"></polygon><polygon points="162.1 277.05 162.11 281.35 145.04 291.2 145.03 286.91 162.1 277.05" style="fill:#407BFF"></polygon><polygon points="153.7 268.68 153.71 270.82 126.68 286.39 126.68 284.25 153.7 268.68" style="fill:#fff"></polygon><polygon points="151.35 320.86 151.35 323 126.83 337.13 126.82 334.99 151.35 320.86" style="fill:#fff"></polygon><polygon points="155.31 314.6 155.31 316.75 126.81 333.17 126.81 331.02 155.31 314.6" style="fill:#fff"></polygon><polygon points="162.18 306.65 162.19 308.8 126.8 329.2 126.8 327.05 162.18 306.65" style="fill:#fff"></polygon><polygon points="155.28 302.44 155.29 306.74 126.79 323.16 126.78 318.87 155.28 302.44" style="fill:#407BFF"></polygon><polygon points="157.81 291.7 157.82 293.85 126.75 311.75 126.75 309.61 157.81 291.7" style="fill:#fff"></polygon><polygon points="152.03 291.07 152.04 293.21 126.74 307.79 126.74 305.64 152.03 291.07" style="fill:#fff"></polygon><polygon points="156.36 271.11 156.37 273.27 126.69 290.37 126.69 288.21 156.36 271.11" style="fill:#fff"></polygon><polygon points="159.72 261.23 159.72 263.38 126.67 282.43 126.67 280.28 159.72 261.23" style="fill:#fff"></polygon><polygon points="155.14 255.67 155.15 259.96 126.65 276.38 126.64 272.09 155.14 255.67" style="fill:#407BFF"></polygon><polygon points="142.95 253.52 142.95 255.67 126.62 265.06 126.62 262.92 142.95 253.52" style="fill:#fff"></polygon><polygon points="158.09 337.73 158.1 339.88 126.89 357.87 126.88 355.72 158.09 337.73" style="fill:#fff"></polygon><polygon points="153.24 336.55 153.24 338.71 126.87 353.9 126.87 351.75 153.24 336.55" style="fill:#fff"></polygon><polygon points="147.85 331.47 147.86 335.76 126.86 347.86 126.84 343.57 147.85 331.47" style="fill:#407BFF"></polygon></g></svg>